<svg width="32" height="32" viewBox="0 0 32 32" fill="none" xmlns="http://www.w3.org/2000/svg">
  <circle cx="16" cy="16" r="16" fill="url(#gradient)" />
  <path d="M8 12c0-4.4 3.6-8 8-8s8 3.6 8 8v8c0 2.2-1.8 4-4 4h-8c-2.2 0-4-1.8-4-4v-8z" fill="white" fill-opacity="0.2" />
  <path d="M12 14.5c0-0.8 0.7-1.5 1.5-1.5s1.5 0.7 1.5 1.5-0.7 1.5-1.5 1.5-1.5-0.7-1.5-1.5z" fill="white" />
  <path d="M17 14.5c0-0.8 0.7-1.5 1.5-1.5s1.5 0.7 1.5 1.5-0.7 1.5-1.5 1.5-1.5-0.7-1.5-1.5z" fill="white" />
  <path d="M12 19c0-2.2 1.8-4 4-4s4 1.8 4 4" stroke="white" stroke-width="2" fill="none" />
  <defs>
    <linearGradient id="gradient" x1="0%" y1="0%" x2="100%" y2="100%">
      <stop offset="0%" stop-color="#0bb2cd" />
      <stop offset="25%" stop-color="#37d8b7" />
      <stop offset="50%" stop-color="#b8f284" />
      <stop offset="75%" stop-color="#00c6c8" />
      <stop offset="100%" stop-color="#f9f871" />
    </linearGradient>
  </defs>
</svg>